<svg xmlns="http://www.w3.org/2000/svg" viewBox="0 0 24 16"><defs><style>.cls-1{fill:#f7931e;}.cls-2{fill:lime;}</style></defs><g id="レイヤー_2" data-name="レイヤー 2"><g id="レイヤー_1-2" data-name="レイヤー 1"><path class="cls-1" d="M22.29,16H1.71a1.6,1.6,0,1,1,0-3.2H22.29a1.6,1.6,0,1,1,0,3.2Z"/><path class="cls-1" d="M22.29,3.2H1.71A1.66,1.66,0,0,1,0,1.6,1.66,1.66,0,0,1,1.71,0H22.29A1.66,1.66,0,0,1,24,1.6,1.66,1.66,0,0,1,22.29,3.2Z"/><path class="cls-2" d="M22.29,9.6H1.71A1.66,1.66,0,0,1,0,8,1.66,1.66,0,0,1,1.71,6.4H22.29A1.66,1.66,0,0,1,24,8,1.66,1.66,0,0,1,22.29,9.6Z"/></g></g></svg>